<svg xmlns="http://www.w3.org/2000/svg" viewBox="0 0 512 512" role="img" aria-label="Video Redactor">
  <defs>
    <linearGradient id="tile" x1="56" y1="32" x2="456" y2="480" gradientUnits="userSpaceOnUse">
      <stop stop-color="#312e81"/>
      <stop offset="1" stop-color="#0f172a"/>
    </linearGradient>
    <linearGradient id="accent" x1="146" y1="126" x2="390" y2="394" gradientUnits="userSpaceOnUse">
      <stop stop-color="#a5b4fc"/>
      <stop offset="1" stop-color="#22d3ee"/>
    </linearGradient>
    <filter id="shadow" x="-20%" y="-20%" width="140%" height="140%">
      <feDropShadow dx="0" dy="18" stdDeviation="18" flood-color="#000" flood-opacity=".35"/>
    </filter>
  </defs>
  <rect width="512" height="512" rx="116" fill="url(#tile)"/>
  <g filter="url(#shadow)">
    <rect x="88" y="128" width="336" height="236" rx="34" fill="#f8fafc" opacity=".95"/>
    <rect x="116" y="158" width="280" height="176" rx="18" fill="#111827"/>
    <path d="M236 202v88l74-44-74-44Z" fill="url(#accent)"/>
    <g fill="#312e81">
      <rect x="102" y="164" width="16" height="22" rx="4"/>
      <rect x="102" y="214" width="16" height="22" rx="4"/>
      <rect x="102" y="264" width="16" height="22" rx="4"/>
      <rect x="394" y="164" width="16" height="22" rx="4"/>
      <rect x="394" y="214" width="16" height="22" rx="4"/>
      <rect x="394" y="264" width="16" height="22" rx="4"/>
    </g>
    <rect x="150" y="302" width="220" height="38" rx="12" fill="#020617"/>
    <rect x="150" y="302" width="220" height="38" rx="12" fill="#ef4444" opacity=".85"/>
  </g>
</svg>
